<?xml version="1.0" encoding="utf-8"?>
<svg xmlns="http://www.w3.org/2000/svg"
	xmlns:xlink="http://www.w3.org/1999/xlink"
	width="32px" height="32px" viewBox="0 0 32 32">
<path fillRule="evenodd" d="M 31.91 12.59C 31.26 14.69 30.15 16.51 28.52 18.14 26.61 20.06 24.27 21.42 22 22.73 19.87 23.97 17.85 25.14 16.31 26.69 15.15 27.84 14.36 29.12 13.91 30.59 13.81 30.91 13.64 31.19 13.41 31.41 13.16 31.67 12.84 31.85 12.48 31.94 11.8 32.11 11.08 31.91 10.59 31.41 10.59 31.41 0.59 21.41 0.59 21.41 0.06 20.89-0.13 20.12 0.09 19.41 0.74 17.3 1.85 15.49 3.48 13.86 5.39 11.94 7.73 10.58 10 9.27 12.13 8.03 14.15 6.86 15.69 5.31 16.85 4.15 17.64 2.88 18.09 1.41 18.19 1.09 18.36 0.81 18.59 0.58 18.84 0.33 19.16 0.15 19.52 0.06 20.2-0.11 20.92 0.09 21.41 0.58 21.41 0.58 31.41 10.59 31.41 10.59 31.94 11.11 32.13 11.88 31.91 12.59ZM 20 2C 17.16 11.2 4.84 10.8 2 20 5.31 23.31 8.69 26.69 12 30 14.84 20.8 27.16 21.2 30 12 26.69 8.69 23.31 5.31 20 2ZM 21.23 5.79C 21.23 5.79 20.55 6.72 20.55 6.72 20.12 7.31 19.63 7.88 19.08 8.42 18.52 8.99 17.91 9.49 17.29 9.97 17.29 9.97 17.28 9.97 17.28 9.97 17.08 10.16 16.77 10.15 16.58 9.96 16.39 9.76 16.39 9.44 16.58 9.24 16.62 9.21 16.66 9.18 16.7 9.16 17.29 8.71 17.85 8.24 18.38 7.71 18.88 7.21 19.34 6.68 19.74 6.13 19.74 6.13 20.4 5.22 20.4 5.22 20.43 5.18 20.45 5.14 20.49 5.1 20.69 4.9 21.01 4.9 21.2 5.1 21.39 5.29 21.4 5.59 21.23 5.78 21.23 5.78 21.23 5.79 21.23 5.79ZM 16.37 12.86C 16.24 12.97 16.08 13.01 15.9 12.98 15.72 12.94 15.53 12.9 15.32 12.85 15.11 12.79 14.89 12.77 14.67 12.78 14.44 12.79 14.21 12.9 13.96 13.12 14.5 13.68 15.04 14.29 15.57 14.91 15.91 14.75 16.25 14.6 16.59 14.47 16.92 14.34 17.26 14.27 17.59 14.24 17.92 14.22 18.25 14.26 18.58 14.35 18.91 14.44 19.23 14.63 19.56 14.9 19.85 15.14 20.05 15.38 20.16 15.67 20.27 15.95 20.31 16.26 20.28 16.61 20.24 16.95 20.14 17.33 19.96 17.71 19.78 18.09 19.54 18.48 19.24 18.85 19.42 19 19.59 19.15 19.77 19.29 19.84 19.35 19.88 19.43 19.89 19.54 19.9 19.64 19.87 19.74 19.8 19.83 19.73 19.92 19.64 19.97 19.53 19.97 19.42 19.98 19.33 19.95 19.26 19.88 19.08 19.73 18.91 19.56 18.73 19.39 18.37 19.76 18 20 17.63 20.14 17.26 20.27 16.91 20.32 16.58 20.3 16.25 20.28 15.95 20.2 15.68 20.07 15.41 19.94 15.19 19.78 15.02 19.59 14.85 19.4 14.77 19.21 14.77 19.03 14.77 18.84 14.85 18.67 15.01 18.53 15.17 18.39 15.32 18.33 15.46 18.33 15.59 18.33 15.73 18.37 15.85 18.43 15.98 18.5 16.12 18.57 16.25 18.66 16.38 18.76 16.53 18.83 16.68 18.87 16.84 18.92 17.01 18.92 17.2 18.88 17.4 18.84 17.62 18.72 17.87 18.51 17.27 17.88 16.68 17.21 16.09 16.52 15.35 16.92 14.66 17.11 14.02 17.15 13.38 17.19 12.82 17.02 12.35 16.63 12.06 16.39 11.86 16.14 11.76 15.84 11.65 15.54 11.61 15.22 11.65 14.87 11.69 14.53 11.79 14.17 11.96 13.81 12.12 13.45 12.33 13.11 12.59 12.8 12.52 12.74 12.46 12.69 12.39 12.63 12.32 12.57 12.28 12.49 12.27 12.38 12.25 12.28 12.29 12.18 12.36 12.09 12.43 12.01 12.52 11.96 12.63 11.96 12.74 11.96 12.83 11.99 12.9 12.06 12.97 12.12 13.03 12.18 13.1 12.25 13.27 12.08 13.49 11.9 13.78 11.74 14.06 11.57 14.37 11.45 14.68 11.38 15 11.31 15.31 11.3 15.61 11.36 15.92 11.41 16.17 11.56 16.38 11.8 16.55 11.99 16.62 12.18 16.61 12.38 16.6 12.57 16.52 12.73 16.37 12.86ZM 18.37 18.02C 18.49 17.89 18.6 17.75 18.69 17.58 18.78 17.41 18.84 17.25 18.87 17.08 18.89 16.91 18.89 16.75 18.85 16.59 18.82 16.43 18.73 16.29 18.59 16.15 18.45 16.01 18.29 15.92 18.13 15.88 17.97 15.84 17.8 15.83 17.64 15.86 17.47 15.88 17.31 15.93 17.15 16 16.99 16.07 16.84 16.13 16.69 16.2 17.25 16.83 17.81 17.46 18.37 18.02ZM 13.45 13.61C 13.31 13.76 13.2 13.92 13.13 14.08 13.05 14.24 13 14.4 12.99 14.55 12.98 14.7 12.99 14.84 13.03 14.96 13.07 15.09 13.13 15.2 13.23 15.29 13.44 15.5 13.69 15.59 13.97 15.58 14.25 15.57 14.59 15.45 14.97 15.24 14.46 14.67 13.96 14.12 13.45 13.61ZM 14.72 22.18C 14.72 22.18 14.72 22.18 14.72 22.18 14.91 22.02 15.2 22.03 15.39 22.21 15.58 22.41 15.58 22.73 15.39 22.92 15.37 22.94 15.35 22.95 15.34 22.96 15.34 22.96 15.34 22.96 15.34 22.96 14.7 23.44 14.18 23.88 13.62 24.44 13.12 24.94 12.66 25.48 12.26 26.02 12.26 26.02 11.62 26.89 11.62 26.89 11.6 26.93 11.58 26.96 11.55 26.99 11.35 27.19 11.03 27.19 10.84 26.99 10.67 26.82 10.65 26.56 10.77 26.37 10.77 26.37 10.77 26.36 10.77 26.36 10.77 26.36 11.45 25.43 11.45 25.43 11.88 24.85 12.37 24.27 12.92 23.73 13.48 23.17 14.09 22.66 14.72 22.18Z" fill="rgb(12,12,12)"/></svg>