<?xml version="1.0" encoding="utf-8"?>
<svg xmlns="http://www.w3.org/2000/svg"
	xmlns:xlink="http://www.w3.org/1999/xlink"
	width="28px" height="40px" viewBox="0 0 28 40">
<path fillRule="evenodd" d="M 21.46 28.85C 18.96 35.83 19.31 40 14 40 8.77 40 9.04 35.81 6.54 28.82 4.86 24.13 0.25 18.79 0.25 13.75 0.25 6.15 6.41-0 14-0 21.59-0 27.75 6.15 27.75 13.75 27.75 18.75 23.15 24.15 21.46 28.85ZM 14 37.5C 15.48 37.5 16.03 37.34 16.8 35.27 16.8 35.27 11.5 35.94 11.5 35.94 12.15 37.35 12.73 37.5 14 37.5ZM 10.3 32.38C 10.58 33.35 10.82 34.1 11.04 34.74 11.04 34.74 17.24 33.97 17.24 33.97 17.38 33.53 17.53 33.04 17.69 32.48 17.79 32.13 17.91 31.74 18.02 31.37 18.02 31.37 10.28 32.34 10.28 32.34 10.29 32.35 10.29 32.36 10.3 32.38ZM 9.92 31.13C 9.92 31.13 18.42 30.07 18.42 30.07 18.55 29.65 18.71 29.2 18.86 28.75 18.86 28.75 9.15 28.75 9.15 28.75 9.44 29.59 9.69 30.38 9.92 31.13ZM 14 2.5C 7.8 2.5 2.75 7.54 2.75 13.75 2.75 16.29 4.44 19.31 6.07 22.23 6.8 23.55 7.55 24.9 8.17 26.25 8.17 26.25 19.84 26.25 19.84 26.25 20.46 24.91 21.2 23.56 21.93 22.24 23.56 19.31 25.25 16.27 25.25 13.75 25.25 7.54 20.2 2.5 14 2.5ZM 14 7.5C 10.55 7.5 7.75 10.3 7.75 13.75 7.75 14.09 7.47 14.37 7.12 14.37 6.78 14.37 6.5 14.09 6.5 13.75 6.5 9.61 9.86 6.25 14 6.25 14.35 6.25 14.62 6.53 14.62 6.87 14.62 7.22 14.35 7.5 14 7.5Z" fill="rgb(13,13,13)"/></svg>