<?xml version="1.0" encoding="utf-8"?>
<svg xmlns="http://www.w3.org/2000/svg"
	xmlns:xlink="http://www.w3.org/1999/xlink"
	width="28px" height="32px" viewBox="0 0 28 32">
<path fillRule="evenodd" d="M 26.11 5.02C 26.11 5.02 24.9 1.37 24.9 1.37 24.62 0.55 23.86-0 23-0 23-0 5-0 5-0 4.14-0 3.37 0.55 3.1 1.37 3.1 1.37 1.88 5.02 1.88 5.02 0.83 5.09-0 5.94-0 7-0 7-0 10-0 10-0 11.1 0.9 12 2 12 2 12 3.03 12 3.03 12 3.03 12.07 3 12.14 3.01 12.22 3.01 12.22 5.01 30.22 5.01 30.22 5.12 31.23 5.98 32 7 32 7 32 21 32 21 32 22.02 32 22.88 31.23 22.99 30.22 22.99 30.22 24.99 12.22 24.99 12.22 25 12.14 24.97 12.07 24.97 12 24.97 12 26 12 26 12 27.1 12 28 11.1 28 10 28 10 28 7 28 7 28 5.93 27.16 5.08 26.11 5.02ZM 5 2C 5 2 23 2 23 2 23 2 24 5 24 5 24 5 4 5 4 5 4 5 5 2 5 2ZM 7 30C 7 30 6.67 27 6.67 27 6.67 27 21.33 27 21.33 27 21.33 27 21 30 21 30 21 30 7 30 7 30ZM 21.44 26C 21.44 26 6.56 26 6.56 26 6.56 26 5.44 16 5.44 16 5.44 16 22.56 16 22.56 16 22.56 16 21.44 26 21.44 26ZM 22.67 15C 22.67 15 5.33 15 5.33 15 5.33 15 5 12 5 12 5 12 23 12 23 12 23 12 22.67 15 22.67 15ZM 26 10C 26 10 2 10 2 10 2 10 2 7 2 7 2 7 26 7 26 7 26 7 26 10 26 10Z" fill="rgb(255,255,255)"/></svg>