<?xml version="1.0" encoding="utf-8"?>
<svg xmlns="http://www.w3.org/2000/svg"
	xmlns:xlink="http://www.w3.org/1999/xlink"
	width="32px" height="32px" viewBox="0 0 32 32">
<path fillRule="evenodd" d="M 29.5 5C 28.12 5 27 3.88 27 2.5 27 1.12 28.12-0 29.5-0 30.88-0 32 1.12 32 2.5 32 3.88 30.88 5 29.5 5ZM 29.5 1C 28.67 1 28 1.67 28 2.5 28 3.33 28.67 4 29.5 4 30.33 4 31 3.33 31 2.5 31 1.67 30.33 1 29.5 1ZM 29.14 13.23C 29.14 13.9 28.88 14.53 28.4 15 28.4 15 26.99 16.41 26.99 16.41 26.52 16.88 25.89 17.14 25.23 17.14 24.73 17.14 24.26 17 23.86 16.73 23.86 16.73 18.52 30.11 18.52 30.11 18.15 31.04 17.33 31.73 16.34 31.94 16.13 31.98 15.93 32 15.73 32 15.71 32 15.67 32 15.65 32 14.88 31.98 14.15 31.67 13.61 31.12 13.61 31.12 0.89 18.54 0.89 18.54 0.18 17.83-0.13 16.83 0.05 15.85 0.24 14.88 0.89 14.06 1.79 13.67 1.79 13.67 15.37 8.23 15.37 8.23 15.13 7.83 15 7.38 15 6.91 15 6.24 15.26 5.62 15.73 5.14 15.73 5.14 17.15 3.73 17.15 3.73 17.62 3.26 18.25 3 18.91 3 19.58 3 20.21 3.26 20.68 3.73 20.68 3.73 28.41 11.46 28.41 11.46 28.88 11.93 29.14 12.56 29.14 13.23ZM 2.6 15.5C 2.3 15.63 2.08 15.9 2.02 16.23 1.96 16.55 2.06 16.89 2.29 17.12 2.29 17.12 15.02 29.71 15.02 29.71 15.2 29.89 15.45 29.99 15.7 30 15.78 30 15.86 29.99 15.93 29.98 16.26 29.91 16.53 29.68 16.66 29.37 16.66 29.37 21.39 17.53 21.39 17.53 17.2 13.06 13.01 14.4 8.82 13.01 8.82 13.01 2.6 15.5 2.6 15.5ZM 26.99 12.87C 26.99 12.87 19.27 5.15 19.27 5.15 19.07 4.95 18.76 4.95 18.56 5.15 18.56 5.15 17.15 6.56 17.15 6.56 16.95 6.76 16.95 7.07 17.15 7.27 17.15 7.27 18.86 8.98 18.86 8.98 18.86 8.98 10.37 12.38 10.37 12.38 11.22 12.57 12.08 12.68 12.96 12.79 15.72 13.13 18.78 13.51 21.79 16.51 21.79 16.51 21.67 16.81 21.67 16.81 21.67 16.81 23.1 13.23 23.1 13.23 23.1 13.23 24.87 14.99 24.87 14.99 25.07 15.19 25.38 15.19 25.58 14.99 25.58 14.99 26.99 13.58 26.99 13.58 27.19 13.38 27.19 13.07 26.99 12.87ZM 16.5 21C 15.12 21 14 19.88 14 18.5 14 17.12 15.12 16 16.5 16 17.88 16 19 17.12 19 18.5 19 19.88 17.88 21 16.5 21ZM 16.5 17C 15.67 17 15 17.67 15 18.5 15 19.33 15.67 20 16.5 20 17.33 20 18 19.33 18 18.5 18 17.67 17.33 17 16.5 17ZM 13 24C 12.45 24 12 23.55 12 23 12 22.45 12.45 22 13 22 13.55 22 14 22.45 14 23 14 23.55 13.55 24 13 24ZM 10 19C 8.9 19 8 18.1 8 17 8 15.9 8.9 15 10 15 11.1 15 12 15.9 12 17 12 18.1 11.1 19 10 19ZM 10 16C 9.45 16 9 16.45 9 17 9 17.55 9.45 18 10 18 10.55 18 11 17.55 11 17 11 16.45 10.55 16 10 16ZM 28 8C 28 7.45 28.45 7 29 7 29.55 7 30 7.45 30 8 30 8.55 29.55 9 29 9 28.45 9 28 8.55 28 8Z" fill="rgb(255,255,255)"/></svg>