<?xml version="1.0" encoding="utf-8"?>
<svg xmlns="http://www.w3.org/2000/svg"
	xmlns:xlink="http://www.w3.org/1999/xlink"
	width="32px" height="32px" viewBox="0 0 32 32">
<path fillRule="evenodd" d="M 31.99 14.41C 31.99 14.41 31.97 14.61 31.97 14.61 31.95 15.35 31.69 16.16 31.12 16.79 31.5 17.5 31.65 18.34 31.51 19.16 31.29 20.49 30.78 21.36 30.17 21.93 30.44 22.57 30.55 23.46 30.17 24.66 29.95 25.38 29.6 26.5 28.53 27.24 28.7 27.89 28.65 28.54 28.5 29 28.32 29.6 28.09 30.05 28.08 30.07 27.36 31.36 26.16 32 24.49 32 24.49 32 19.03 32 19.03 32 16.25 32 13.56 31.43 13.05 31.31 10.68 30.77 9.58 30.5 9 30.36 8.98 30.35 8.97 30.35 8.95 30.35 8.86 30.32 8.78 30.3 8.71 30.28 8.7 30.28 8.68 30.28 8.67 30.27 8.19 31.28 7.19 32 6 32 6 32 3 32 3 32 1.35 32-0 30.65-0 29-0 29-0 13-0 13-0 11.34 1.35 10 3 10 3 10 6 10 6 10 6.75 10 7.47 10.34 8 10.8 8 10.8 7.95 10.75 7.95 10.75 8.05 10.71 8.75 10.36 9 10.23 12.36 8.47 12.98 4.99 13 2.98 13.02 1.33 14.37-0 16-0 18.31-0 20.93 3.16 20.93 6.75 20.93 8.25 20.88 9.09 20.68 10.03 24.97 10.15 27.92 10.14 29.16 10.47 31.13 11.03 32 12.64 32 13.9 32 14.19 31.99 14.27 31.99 14.41ZM 7 13C 7 12.45 6.55 12 6 12 6 12 3 12 3 12 2.45 12 2 12.45 2 13 2 13 2 29 2 29 2 29.55 2.45 30 3 30 3 30 6 30 6 30 6.55 30 7 29.55 7 29 7 29 7 13 7 13ZM 28.81 12.37C 27.93 12.14 28 12 18 12 18.83 9.53 18.93 9.12 18.93 6.75 18.93 4.12 17.06 2 16 2 15.38 2 15.01 2.52 15 3 14.96 6.4 13.57 10.55 9 12.44 8.94 12.47 8.86 12.5 8.79 12.52 8.3 12.67 8 13.09 8 13.56 8 13.56 8.01 27.37 8.01 27.37 8.01 28.11 8.85 28.26 8.85 28.26 9.11 28.33 9.33 28.4 13.49 29.36 13.56 29.38 16.28 30 19.03 30 19.03 30 24.49 30 24.49 30 25.53 30 26.01 29.67 26.31 29.13 26.32 29.11 26.47 28.81 26.59 28.41 26.71 28.03 26.66 27 25.56 27 24.69 27 23.99 27 23.99 27 23.72 27 23.49 26.77 23.49 26.5 23.49 26.22 23.72 26 23.99 26 23.99 26 24.91 26 25.63 26 27.75 26 27.95 25.06 28.27 24.05 28.51 23.29 28.66 22 26.97 22 26.19 22 25 22 25 22 24.72 22 24.5 21.77 24.5 21.5 24.5 21.22 24.72 21 25 21 25 21 25.69 21 27.38 21 29.06 21 29.41 19.59 29.54 18.84 29.63 18.24 29.44 17 27.94 17 26.44 17 26 17 26 17 25.72 17 25.5 16.77 25.5 16.5 25.5 16.22 25.72 16 26 16 26 16 26.5 16 28 16 29.75 16 29.96 15.03 29.98 14.53 29.99 14.2 30 14.25 30 13.9 30 13.59 29.91 12.69 28.81 12.37ZM 4.5 29C 3.67 29 3 28.33 3 27.5 3 26.67 3.67 26 4.5 26 5.33 26 6 26.67 6 27.5 6 28.33 5.33 29 4.5 29ZM 4.5 27C 4.22 27 4 27.22 4 27.5 4 27.77 4.22 28 4.5 28 4.78 28 5 27.77 5 27.5 5 27.22 4.78 27 4.5 27Z" fill="rgb(255,255,255)"/></svg>