<?xml version="1.0" encoding="utf-8"?>
<svg xmlns="http://www.w3.org/2000/svg"
	xmlns:xlink="http://www.w3.org/1999/xlink"
	width="32px" height="32px" viewBox="0 0 32 32">
<path fillRule="evenodd" d="M 30 13.98C 30 13.98 30 29 30 29 30 30.65 28.65 32 27 32 25.35 32 24 30.65 24 29 24 29 24 13.98 24 13.98 22.79 13.06 22 11.63 22 10 22 8.37 22.79 6.93 24 6.02 24 6.02 24 3 24 3 24 1.35 25.35-0 27-0 28.65-0 30 1.35 30 3 30 3 30 6.02 30 6.02 31.21 6.93 32 8.37 32 10 32 11.63 31.21 13.06 30 13.98ZM 26 29C 26 29.55 26.45 30 27 30 27.55 30 28 29.55 28 29 28 29 28 14.9 28 14.9 27.68 14.96 27.34 15 27 15 26.66 15 26.32 14.96 26 14.9 26 14.9 26 29 26 29ZM 28 3C 28 2.45 27.55 2 27 2 26.45 2 26 2.45 26 3 26 3 26 5.1 26 5.1 26.32 5.03 26.66 5 27 5 27.34 5 27.68 5.03 28 5.1 28 5.1 28 3 28 3ZM 29.87 9.16C 29.85 9.1 29.83 9.05 29.82 9 29.72 8.74 29.6 8.49 29.44 8.26 29.43 8.26 29.43 8.25 29.42 8.25 29.25 8.01 29.04 7.8 28.81 7.62 28.8 7.62 28.8 7.61 28.8 7.61 28.56 7.43 28.29 7.29 28 7.18 27.69 7.07 27.35 7 27 7 26.65 7 26.31 7.07 26 7.18 25.71 7.29 25.44 7.43 25.2 7.61 25.2 7.61 25.2 7.62 25.19 7.62 24.96 7.8 24.75 8.01 24.58 8.25 24.57 8.25 24.57 8.26 24.56 8.26 24.4 8.49 24.28 8.74 24.18 9 24.16 9.05 24.15 9.1 24.13 9.16 24.05 9.43 24 9.7 24 10 24 10.29 24.05 10.57 24.13 10.84 24.15 10.89 24.16 10.94 24.18 11 24.28 11.26 24.4 11.51 24.56 11.73 24.57 11.74 24.57 11.74 24.58 11.75 24.75 11.99 24.96 12.2 25.19 12.38 25.2 12.38 25.2 12.38 25.2 12.38 25.44 12.57 25.71 12.71 26 12.81 26.31 12.93 26.65 13 27 13 27.35 13 27.69 12.93 28 12.81 28.29 12.71 28.56 12.57 28.8 12.38 28.8 12.38 28.8 12.38 28.81 12.38 29.04 12.2 29.25 11.99 29.42 11.75 29.43 11.74 29.43 11.74 29.44 11.73 29.6 11.51 29.72 11.26 29.82 11 29.83 10.94 29.85 10.89 29.87 10.84 29.95 10.57 30 10.29 30 10 30 9.7 29.95 9.43 29.87 9.16ZM 19 25.98C 19 25.98 19 29 19 29 19 30.65 17.65 32 16 32 14.35 32 13 30.65 13 29 13 29 13 25.98 13 25.98 11.79 25.06 11 23.63 11 22 11 20.37 11.79 18.93 13 18.02 13 18.02 13 3 13 3 13 1.35 14.35-0 16-0 17.65-0 19 1.35 19 3 19 3 19 18.02 19 18.02 20.21 18.93 21 20.37 21 22 21 23.63 20.21 25.06 19 25.98ZM 15 29C 15 29.55 15.45 30 16 30 16.55 30 17 29.55 17 29 17 29 17 26.9 17 26.9 16.68 26.96 16.34 27 16 27 15.66 27 15.32 26.96 15 26.9 15 26.9 15 29 15 29ZM 17 3C 17 2.45 16.55 2 16 2 15.45 2 15 2.45 15 3 15 3 15 17.1 15 17.1 15.32 17.03 15.66 17 16 17 16.34 17 16.68 17.03 17 17.1 17 17.1 17 3 17 3ZM 18.87 21.16C 18.85 21.1 18.83 21.05 18.82 21 18.72 20.74 18.6 20.49 18.44 20.26 18.43 20.26 18.43 20.25 18.42 20.25 18.25 20.01 18.04 19.8 17.81 19.62 17.8 19.62 17.8 19.61 17.8 19.61 17.56 19.43 17.29 19.29 17 19.18 16.69 19.07 16.35 19 16 19 15.65 19 15.31 19.07 15 19.18 14.71 19.29 14.44 19.43 14.2 19.61 14.2 19.61 14.2 19.62 14.19 19.62 13.96 19.8 13.75 20.01 13.58 20.25 13.57 20.25 13.57 20.26 13.56 20.26 13.4 20.49 13.28 20.74 13.18 21 13.17 21.05 13.15 21.1 13.13 21.16 13.05 21.43 13 21.7 13 22 13 22.29 13.05 22.57 13.13 22.84 13.15 22.89 13.17 22.94 13.18 23 13.28 23.26 13.4 23.51 13.56 23.73 13.57 23.74 13.57 23.74 13.58 23.75 13.75 23.99 13.96 24.2 14.19 24.38 14.2 24.38 14.2 24.38 14.2 24.38 14.44 24.57 14.71 24.71 15 24.81 15.31 24.93 15.65 25 16 25 16.35 25 16.69 24.93 17 24.81 17.29 24.71 17.56 24.57 17.8 24.38 17.8 24.38 17.8 24.38 17.81 24.38 18.04 24.2 18.25 23.99 18.42 23.75 18.43 23.74 18.43 23.74 18.44 23.73 18.6 23.51 18.72 23.26 18.82 23 18.83 22.94 18.85 22.89 18.87 22.84 18.95 22.57 19 22.29 19 22 19 21.7 18.95 21.43 18.87 21.16ZM 8 13.98C 8 13.98 8 29 8 29 8 30.65 6.65 32 5 32 3.35 32 2 30.65 2 29 2 29 2 13.98 2 13.98 0.79 13.06-0 11.63-0 10-0 8.37 0.79 6.93 2 6.02 2 6.02 2 3 2 3 2 1.35 3.35-0 5-0 6.65-0 8 1.35 8 3 8 3 8 6.02 8 6.02 9.21 6.93 10 8.37 10 10 10 11.63 9.21 13.06 8 13.98ZM 4 29C 4 29.55 4.45 30 5 30 5.55 30 6 29.55 6 29 6 29 6 14.9 6 14.9 5.68 14.96 5.34 15 5 15 4.66 15 4.32 14.96 4 14.9 4 14.9 4 29 4 29ZM 6 3C 6 2.45 5.55 2 5 2 4.45 2 4 2.45 4 3 4 3 4 5.1 4 5.1 4.32 5.03 4.66 5 5 5 5.34 5 5.68 5.03 6 5.1 6 5.1 6 3 6 3ZM 7.87 9.16C 7.85 9.1 7.83 9.05 7.82 9 7.72 8.74 7.6 8.49 7.44 8.26 7.43 8.26 7.43 8.25 7.42 8.25 7.25 8.01 7.04 7.8 6.81 7.62 6.8 7.62 6.8 7.61 6.8 7.61 6.56 7.43 6.29 7.29 6 7.18 5.69 7.07 5.35 7 5 7 4.65 7 4.31 7.07 4 7.18 3.71 7.29 3.44 7.43 3.2 7.61 3.2 7.61 3.2 7.62 3.19 7.62 2.96 7.8 2.75 8.01 2.58 8.25 2.57 8.25 2.57 8.26 2.56 8.26 2.4 8.49 2.28 8.74 2.18 9 2.16 9.05 2.15 9.1 2.13 9.16 2.05 9.43 2 9.7 2 10 2 10.29 2.05 10.57 2.13 10.84 2.15 10.89 2.16 10.94 2.18 11 2.28 11.26 2.4 11.51 2.56 11.73 2.57 11.74 2.57 11.74 2.58 11.75 2.75 11.99 2.96 12.2 3.19 12.38 3.2 12.38 3.2 12.38 3.2 12.38 3.44 12.57 3.71 12.71 4 12.81 4.31 12.93 4.65 13 5 13 5.35 13 5.69 12.93 6 12.81 6.29 12.71 6.56 12.57 6.8 12.38 6.8 12.38 6.8 12.38 6.81 12.38 7.04 12.2 7.25 11.99 7.42 11.75 7.43 11.74 7.43 11.74 7.44 11.73 7.6 11.51 7.72 11.26 7.82 11 7.83 10.94 7.85 10.89 7.87 10.84 7.95 10.57 8 10.29 8 10 8 9.7 7.95 9.43 7.87 9.16Z" fill="rgb(12,12,12)"/></svg>