<?xml version="1.0" encoding="utf-8"?>
<svg xmlns="http://www.w3.org/2000/svg"
	xmlns:xlink="http://www.w3.org/1999/xlink"
	width="450px" height="254px" viewBox="0 0 450 254">
<clipPath id="clip0"><rect x="0" y="0" width="450" height="254"/></clipPath><g><rect x="0" y="0" width="450" height="254" fill="rgb(230,75,59)"/><path fillRule="evenodd" d="M 242.33 141.95C 242.33 141.95 208.67 141.95 208.67 141.95 207.18 141.95 205.97 140.76 205.97 139.29 205.97 139.29 205.97 118.02 205.97 118.02 205.97 116.56 207.18 115.36 208.67 115.36 208.67 115.36 216.83 115.36 216.83 115.36 216.83 115.36 216.75 115.21 216.75 113.37 216.75 111.54 218.25 110.05 220.11 110.05 220.11 110.05 230.89 110.05 230.89 110.05 232.75 110.05 234.25 111.54 234.25 113.37 234.25 115.21 234.34 115.36 234.34 115.36 234.34 115.36 242.33 115.36 242.33 115.36 243.82 115.36 245.02 116.56 245.02 118.02 245.02 118.02 245.02 139.29 245.02 139.29 245.02 140.76 243.82 141.95 242.33 141.95ZM 225.56 136.6C 230.02 136.6 233.64 133.03 233.64 128.62 233.64 124.22 230.02 120.65 225.56 120.65 221.1 120.65 217.48 124.22 217.48 128.62 217.48 133.03 221.1 136.6 225.56 136.6Z" fill="rgb(255,255,255)" clip-path="url(#clip0)"/></g></svg>