<?xml version="1.0" encoding="utf-8"?>
<svg xmlns="http://www.w3.org/2000/svg"
	xmlns:xlink="http://www.w3.org/1999/xlink"
	width="32px" height="28px" viewBox="0 0 32 28">
<path fillRule="evenodd" d="M 28 28C 28 28 4 28 4 28 1.79 28-0 26.21-0 24-0 24-0 17-0 17-0 16.82 0.03 16.64 0.08 16.45 0.08 16.45 4.08 1.45 4.08 1.45 4.32 0.6 5.11-0 6-0 6-0 16-0 16-0 16-0 26-0 26-0 26.89-0 27.68 0.6 27.92 1.45 27.92 1.45 31.92 16.45 31.92 16.45 31.97 16.64 32 16.82 32 17 32 17 32 24 32 24 32 26.21 30.21 28 28 28ZM 30 17C 30 17 26 2 26 2 26 2 6 2 6 2 6 2 2 17 2 17 2 17 2 24 2 24 2 25.1 2.9 26 4 26 4 26 28 26 28 26 29.1 26 30 25.1 30 24 30 24 30 17 30 17ZM 27.19 18C 27.19 18 24.28 18 24.28 18 24.28 18 23.14 18 23.14 18 23.14 18 22.62 18 22.62 18 22.62 18 21.17 20.89 21.17 20.89 20.83 21.57 20.14 22 19.38 22 19.38 22 12.62 22 12.62 22 11.86 22 11.17 21.57 10.83 20.89 10.83 20.89 9.38 18 9.38 18 9.38 18 8.86 18 8.86 18 8.86 18 7.72 18 7.72 18 7.72 18 4.81 18 4.81 18 4.5 18 4.21 17.85 4.02 17.61 3.83 17.36 3.77 17.04 3.85 16.74 3.85 16.74 7.29 4.74 7.29 4.74 7.41 4.3 7.8 4 8.26 4 8.26 4 23.74 4 23.74 4 24.2 4 24.59 4.3 24.71 4.74 24.71 4.74 28.15 16.74 28.15 16.74 28.23 17.04 28.17 17.36 27.98 17.61 27.79 17.85 27.5 18 27.19 18ZM 23.74 5C 23.74 5 8.26 5 8.26 5 8.26 5 5.33 16 5.33 16 5.33 16 7.72 16 7.72 16 7.72 16 9.38 16 9.38 16 10.14 16 10.83 16.42 11.17 17.1 11.17 17.1 12.62 20 12.62 20 12.62 20 19.38 20 19.38 20 19.38 20 20.83 17.1 20.83 17.1 21.17 16.42 21.86 16 22.62 16 22.62 16 24.28 16 24.28 16 24.28 16 26.67 16 26.67 16 26.67 16 23.74 5 23.74 5Z" fill="rgb(242,155,17)"/></svg>