<?xml version="1.0" encoding="utf-8"?>
<svg xmlns="http://www.w3.org/2000/svg"
	xmlns:xlink="http://www.w3.org/1999/xlink"
	width="28px" height="27px" viewBox="0 0 28 27">
<path fillRule="evenodd" d="M 27.5 10.15C 27.26 9.47 26.66 8.97 25.93 8.86 25.93 8.86 18.85 7.81 18.85 7.81 18.85 7.81 15.78 1.42 15.78 1.42 15.45 0.75 14.76 0.32 14 0.32 13.24 0.32 12.55 0.75 12.22 1.42 12.22 1.42 9.15 7.81 9.15 7.81 9.15 7.81 2.07 8.86 2.07 8.86 1.34 8.97 0.74 9.47 0.5 10.15 0.27 10.83 0.44 11.58 0.96 12.09 0.96 12.09 6.14 17.27 6.14 17.27 6.14 17.27 4.94 24.45 4.94 24.45 4.82 25.18 5.13 25.9 5.75 26.33 6.09 26.56 6.48 26.67 6.88 26.67 7.21 26.67 7.53 26.59 7.83 26.44 7.83 26.44 14 23.11 14 23.11 14 23.11 20.17 26.44 20.17 26.44 20.47 26.59 20.79 26.67 21.12 26.67 21.52 26.67 21.91 26.56 22.25 26.33 22.87 25.9 23.18 25.18 23.06 24.45 23.06 24.45 21.85 17.27 21.85 17.27 21.85 17.27 27.04 12.09 27.04 12.09 27.56 11.58 27.73 10.83 27.5 10.15ZM 20.45 15.93C 20.01 16.37 19.82 16.98 19.92 17.58 19.92 17.58 21.12 24.76 21.12 24.76 21.12 24.76 14.95 21.44 14.95 21.44 14.65 21.28 14.33 21.2 14 21.2 13.67 21.2 13.35 21.28 13.05 21.44 13.05 21.44 6.88 24.76 6.88 24.76 6.88 24.76 8.08 17.58 8.08 17.58 8.18 16.98 7.99 16.37 7.55 15.93 7.55 15.93 2.36 10.75 2.36 10.75 2.36 10.75 9.44 9.7 9.44 9.7 10.09 9.6 10.65 9.2 10.92 8.62 10.92 8.62 14 2.24 14 2.24 14 2.24 17.08 8.62 17.08 8.62 17.35 9.2 17.91 9.6 18.56 9.7 18.56 9.7 25.64 10.75 25.64 10.75 25.64 10.75 20.45 15.93 20.45 15.93Z" fill="rgb(12,12,12)"/></svg>