<?xml version="1.0" encoding="utf-8"?>
<svg xmlns="http://www.w3.org/2000/svg"
	xmlns:xlink="http://www.w3.org/1999/xlink"
	width="32px" height="32px" viewBox="0 0 32 32">
<path fillRule="evenodd" d="M 31.11 28.33C 30.91 28.2 27.26 25.81 21.84 24.64 23.83 22.11 25.1 18.72 25.65 16.47 26.4 13.34 26.11 7.22 23.1 3.4 21.35 1.18 18.89-0 16-0 13.11-0 10.65 1.18 8.9 3.4 5.89 7.22 5.6 13.34 6.35 16.47 6.9 18.72 8.17 22.11 10.16 24.64 4.74 25.81 1.09 28.2 0.89 28.33 0.16 28.82-0.17 29.74 0.09 30.58 0.34 31.42 1.12 32 2 32 2 32 30 32 30 32 30.88 32 31.66 31.42 31.91 30.58 32.17 29.74 31.84 28.82 31.11 28.33ZM 20.27 23.4C 20.27 23.4 19.94 23.81 19.94 23.81 17.55 26.55 14.45 26.55 12.06 23.81 12.06 23.81 11.73 23.4 11.73 23.4 8.95 19.87 7.57 15.2 8.16 10.75 8.71 6.47 11.16 2 16 2 20.84 2 23.29 6.47 23.84 10.75 24.43 15.2 23.05 19.87 20.27 23.4ZM 2 30C 2.14 29.91 5.53 27.69 10.59 26.59 10.59 26.59 13.07 26.05 13.07 26.05 13.96 26.64 14.93 27 16 27 17.07 27 18.04 26.64 18.93 26.05 18.93 26.05 21.41 26.59 21.41 26.59 26.43 27.68 29.81 29.87 30 30 30 30 2 30 2 30Z" fill="rgb(255,255,255)"/></svg>