<?xml version="1.0" encoding="utf-8"?>
<svg xmlns="http://www.w3.org/2000/svg"
	xmlns:xlink="http://www.w3.org/1999/xlink"
	width="29px" height="29px" viewBox="0 0 29 29">
<path fillRule="evenodd" d="M 14.5 0.55C 6.8 0.55 0.55 6.79 0.55 14.5 0.55 22.2 6.8 28.45 14.5 28.45 22.2 28.45 28.45 22.2 28.45 14.5 28.45 6.79 22.2 0.55 14.5 0.55ZM 26.63 14.05C 26.63 14.05 21.23 14.05 21.23 14.05 21.18 12.06 20.83 10.15 20.2 8.41 21.41 7.9 22.53 7.23 23.56 6.43 25.38 8.47 26.52 11.13 26.63 14.05ZM 14 26.62C 12.51 25.38 11.25 23.76 10.33 21.88 11.51 21.51 12.76 21.31 14.05 21.27 14.05 21.27 14.05 26.63 14.05 26.63 14.03 26.63 14.02 26.62 14 26.62ZM 15 2.37C 16.69 3.79 18.08 5.68 19.02 7.89 17.73 8.33 16.37 8.58 14.95 8.63 14.95 8.63 14.95 2.37 14.95 2.37 14.97 2.37 14.98 2.37 15 2.37ZM 16.5 2.53C 18.98 2.94 21.21 4.1 22.94 5.78 22 6.5 20.97 7.12 19.86 7.58 19.04 5.64 17.89 3.92 16.5 2.53ZM 14.05 2.37C 14.05 2.37 14.05 8.63 14.05 8.63 12.63 8.58 11.27 8.33 9.98 7.89 10.92 5.68 12.31 3.79 14 2.37 14.02 2.37 14.03 2.37 14.05 2.37ZM 9.14 7.58C 8.03 7.12 7 6.5 6.06 5.78 7.79 4.1 10.02 2.94 12.5 2.53 11.11 3.92 9.96 5.64 9.14 7.58ZM 9.64 8.72C 11.03 9.2 12.51 9.48 14.05 9.53 14.05 9.53 14.05 14.05 14.05 14.05 14.05 14.05 8.67 14.05 8.67 14.05 8.72 12.16 9.05 10.36 9.64 8.72ZM 14.05 14.95C 14.05 14.95 14.05 20.37 14.05 20.37 12.63 20.41 11.26 20.65 9.96 21.06 9.19 19.21 8.73 17.14 8.67 14.95 8.67 14.95 14.05 14.95 14.05 14.95ZM 12.5 26.47C 10.28 26.1 8.26 25.13 6.61 23.72 7.5 23.11 8.46 22.59 9.48 22.19 10.27 23.82 11.3 25.27 12.5 26.47ZM 14.95 26.63C 14.95 26.63 14.95 21.27 14.95 21.27 16.24 21.31 17.49 21.51 18.67 21.88 17.75 23.76 16.49 25.38 15 26.62 14.98 26.62 14.97 26.63 14.95 26.63ZM 19.52 22.19C 20.54 22.59 21.5 23.11 22.39 23.72 20.74 25.13 18.72 26.1 16.5 26.47 17.7 25.27 18.73 23.82 19.52 22.19ZM 19.04 21.06C 17.74 20.65 16.37 20.41 14.95 20.37 14.95 20.37 14.95 14.95 14.95 14.95 14.95 14.95 20.33 14.95 20.33 14.95 20.27 17.14 19.81 19.21 19.04 21.06ZM 14.95 14.05C 14.95 14.05 14.95 9.53 14.95 9.53 16.49 9.48 17.97 9.2 19.35 8.72 19.95 10.36 20.28 12.16 20.33 14.05 20.33 14.05 14.95 14.05 14.95 14.05ZM 5.44 6.43C 6.46 7.23 7.59 7.9 8.8 8.41 8.17 10.15 7.82 12.06 7.77 14.05 7.77 14.05 2.37 14.05 2.37 14.05 2.48 11.13 3.62 8.47 5.44 6.43ZM 2.37 14.95C 2.37 14.95 7.77 14.95 7.77 14.95 7.83 17.25 8.31 19.42 9.12 21.37 7.98 21.82 6.92 22.41 5.94 23.11 3.82 21.01 2.49 18.13 2.37 14.95ZM 23.06 23.11C 22.08 22.41 21.02 21.82 19.88 21.37 20.69 19.42 21.17 17.25 21.23 14.95 21.23 14.95 26.63 14.95 26.63 14.95 26.51 18.13 25.18 21.01 23.06 23.11Z" fill="rgb(12,12,12)"/></svg>